<svg version="1" xmlns="http://www.w3.org/2000/svg" width="682.667" height="682.667" viewBox="0 0 512.000000 512.000000"><path d="M156.5 56.7c-5.5 1.1-14.7 5-20.2 8.5-11.5 7.3-21.2 20.7-24.8 34.4-1.8 6.9-2 19.2-.4 26.6 2.7 12.6 11.2 26 21.4 33.5l6.5 4.8v192.4l-4.3 3c-15.3 10.5-24.7 28.6-24.7 47.6 0 31.9 25.6 57.6 57.5 57.6 16.7.1 29.5-5.1 41.1-16.6 12.5-12.5 18-26.8 17.1-44.5-.7-13.7-3.6-20.9-14.2-35.8-.8-1 .2-2.5 4-5.9 10-9.2 25.3-14.2 43.7-14.3 60.5-.2 102.8-38.7 112.2-102.3.9-5.8 1.6-13.2 1.6-16.5 0-6.1 0-6.1 4.4-9.1 6.5-4.5 14.9-14.3 18.4-21.4 11-22.4 7.4-47.5-9.3-65.5-11.5-12.4-25.7-18.6-42.5-18.6-16.7 0-30.8 6.1-42.4 18.4-16.7 17.8-20.5 43.7-9.4 65.7 3.6 7.2 12 17 18.5 21.5l4.6 3.1-.6 9.6c-1.2 20.7-10.6 39.1-24.8 48.1-9.4 6.1-16.8 8.1-33.9 9.1-24.9 1.5-38.3 4.1-52.3 10.3-3.2 1.4-6 2.6-6.2 2.6-.3 0-.5-31.2-.5-69.4v-69.3l3.8-2.5c9.4-6.3 18.3-17.9 22.2-29.1 3-8.6 3.7-23 1.6-32.1-4.8-20.4-21.8-37.8-42.2-43.1-5.4-1.4-20.9-1.9-25.9-.8zM175 85.1c10.3 2.3 18.3 10.3 21.5 21.4 2.9 9.9.1 20.3-7.7 28.2-18.2 18.6-50.1 5.5-50.3-20.7-.1-19.4 17.4-33.3 36.5-28.9zm181.7 60.7c10.9 5.6 16.7 14.9 16.7 26.7 0 16.6-12.7 29.5-29.3 29.5-23.6 0-37.8-26.2-24.8-45.7 3.3-5 10.7-10.6 16.1-12.3 5.1-1.6 16.6-.6 21.3 1.8zM182.1 381.2c10.2 6 15.3 14.9 15.3 26.3-.1 11.6-6.7 22-17.3 26.8-6.4 3-17.8 3-24.2 0-14.6-6.7-21.4-24.4-14.9-39.1 2.7-6.2 10.1-13.3 16.3-15.6 6.7-2.5 19.2-1.7 24.8 1.6z"/></svg>